<?xml version="1.0" encoding="UTF-8" standalone="no"?>
<!-- Created with Inkscape (http://www.inkscape.org/) -->

<svg
   version="1.1"
   id="svg2"
   width="109.44288"
   height="113.23095"
   viewBox="0 0 109.44288 113.23095"
   sodipodi:docname="MLHolding_Icon.svg"
   inkscape:version="1.3.2 (091e20e, 2023-11-25, custom)"
   xmlns:inkscape="http://www.inkscape.org/namespaces/inkscape"
   xmlns:sodipodi="http://sodipodi.sourceforge.net/DTD/sodipodi-0.dtd"
   xmlns="http://www.w3.org/2000/svg"
   xmlns:svg="http://www.w3.org/2000/svg">
  <defs
     id="defs6" />
  <sodipodi:namedview
     id="namedview4"
     pagecolor="#ffffff"
     bordercolor="#000000"
     borderopacity="0.25"
     inkscape:showpageshadow="2"
     inkscape:pageopacity="0.0"
     inkscape:pagecheckerboard="0"
     inkscape:deskcolor="#d1d1d1"
     inkscape:zoom="7.1127055"
     inkscape:cx="97.009499"
     inkscape:cy="63.899735"
     inkscape:window-width="2560"
     inkscape:window-height="1369"
     inkscape:window-x="-8"
     inkscape:window-y="-8"
     inkscape:window-maximized="1"
     inkscape:current-layer="g8" />
  <g
     id="g8"
     inkscape:groupmode="layer"
     inkscape:label="ink_ext_XXXXXX"
     transform="matrix(1.3333333,0,0,-1.3333333,2.1455479e-4,116.61454)">
    <g
       id="g10"
       transform="scale(0.1)">
      <path
         d="m 110.266,450.785 c 0,172.653 139.961,312.613 312.617,312.613 172.648,0 312.609,-139.96 312.609,-312.613 0,-172.652 -139.961,-312.613 -312.609,-312.613 -172.656,0 -312.617,139.961 -312.617,312.613 z m 63.39,0 c 0,137.641 111.578,249.223 249.227,249.223 137.64,0 249.219,-111.582 249.219,-249.223 0,-137.64 -111.579,-249.222 -249.219,-249.222 -137.649,0 -249.227,111.582 -249.227,249.222 v 0"
         style="fill:#00adef;fill-opacity:1;fill-rule:evenodd;stroke:none"
         id="path12" />
      <path
         d="m 163.285,450.77 c 0,143.414 116.254,259.668 259.664,259.668 143.406,0 259.664,-116.254 259.664,-259.668 0,-143.407 -116.258,-259.657 -259.664,-259.657 -143.41,0 -259.664,116.25 -259.664,259.657 v 0"
         style="fill:#ffffff;fill-opacity:1;fill-rule:nonzero;stroke:none"
         id="path14" />
      <path
         d="m 643.098,488.379 c 2.078,-12.246 3.164,-24.832 3.164,-37.676 0,-26.855 -4.742,-52.609 -13.434,-76.457 -11.058,9.942 -22.547,29.719 -10.23,66.309 z M 199.691,450.703 c 0,31.801 6.653,62.051 18.629,89.43 10.766,-8.43 32.039,-31.942 16.375,-78.496 L 206.488,395.82 c -4.437,17.559 -6.797,35.946 -6.797,54.883 z m 20.305,93.16 c 35.309,76.801 112.914,130.121 202.984,130.121 72.583,0 137.079,-34.629 177.86,-88.281 L 539.016,440.555 c -18.496,-55.399 9.047,-74.903 39.578,-75.125 h 50.804 C 595.898,284.414 516.094,227.422 422.98,227.422 c -68.46,0 -129.718,30.801 -170.679,79.305 l 66.82,154.91 c 18.496,55.398 -7.207,82 -37.738,82.226 z m 314.949,-82.226 c 18.496,55.398 -7.207,82 -37.738,82.226 h -68.633 c 0,0 36.406,-21.523 15.989,-82.226 l -42.415,-96.16 h 90.387 z m -108.32,0 c 18.496,55.398 -7.207,82 -37.738,82.226 h -68.633 c 0,0 36.41,-21.523 15.984,-82.226 l -42.41,-96.16 h 90.387 l 42.41,96.16 v 0"
         style="fill:#00adef;fill-opacity:1;fill-rule:evenodd;stroke:none"
         id="path16" />
      <path
         d="m 319.121,461.637 -66.82,-154.91 c -21.488,25.461 -37.399,55.781 -45.813,89.093 l 28.207,65.817 c 15.664,46.554 -5.609,70.066 -16.375,78.496 l 1.68,3.73 h 61.383 c 30.531,-0.226 56.234,-26.828 37.738,-82.226 v 0"
         style="fill:#ffffff;fill-opacity:1;fill-rule:nonzero;stroke:none"
         id="path18" />
      <path
         d="m 426.625,461.637 -42.41,-96.16 h -90.387 l 42.41,96.16 c 20.426,60.703 -15.984,82.226 -15.984,82.226 h 68.633 c 30.531,-0.226 56.234,-26.828 37.738,-82.226 v 0"
         style="fill:#ffffff;fill-opacity:1;fill-rule:nonzero;stroke:none"
         id="path20" />
      <path
         d="m 534.945,461.637 -42.41,-96.16 h -90.387 l 42.415,96.16 c 20.417,60.703 -15.989,82.226 -15.989,82.226 h 68.633 c 30.531,-0.226 56.234,-26.828 37.738,-82.226 v 0"
         style="fill:#ffffff;fill-opacity:1;fill-rule:nonzero;stroke:none"
         id="path22" />
      <path
         d="m 539.016,440.555 61.824,145.148 c 21.289,-28.004 36.113,-61.183 42.258,-97.324 l -20.5,-47.824 c -12.317,-36.59 -0.828,-56.367 10.23,-66.309 -1.082,-2.969 -2.226,-5.906 -3.43,-8.816 h -50.804 c -30.531,0.222 -58.074,19.726 -39.578,75.125 v 0"
         style="fill:#ffffff;fill-opacity:1;fill-rule:nonzero;stroke:none"
         id="path24" />
      <path
         d="m 287.355,151.648 c -17.007,7.844 -33.3,17.09 -48.71,27.668 -0.051,0.028 -0.098,0.067 -0.149,0.098 -5.078,3.484 -10.055,7.109 -14.933,10.879 -0.145,0.105 -0.293,0.234 -0.438,0.352 -4.762,3.691 -9.43,7.5 -13.988,11.453 -0.282,0.238 -0.547,0.5 -0.824,0.734 -4.411,3.856 -8.735,7.801 -12.942,11.883 -0.414,0.414 -0.816,0.84 -1.23,1.242 -4.036,3.965 -7.985,7.996 -11.813,12.168 -0.59,0.645 -1.14,1.309 -1.723,1.953 -3.617,3.992 -7.167,8.055 -10.589,12.235 -0.743,0.91 -1.442,1.859 -2.172,2.777 -3.199,3.992 -6.352,8.015 -9.364,12.176 -0.898,1.23 -1.726,2.519 -2.613,3.769 -2.762,3.926 -5.508,7.871 -8.101,11.926 -1.024,1.59 -1.953,3.238 -2.946,4.84 -2.359,3.828 -4.715,7.66 -6.922,11.594 -1.105,1.972 -2.109,4.023 -3.175,6.027 -1.957,3.668 -3.946,7.332 -5.77,11.101 -1.187,2.45 -2.254,4.989 -3.387,7.481 -1.55,3.437 -3.164,6.824 -4.609,10.332 -1.25,3.027 -2.344,6.152 -3.512,9.238 -1.16,3.074 -2.402,6.114 -3.476,9.239 -1.328,3.859 -2.469,7.82 -3.66,11.746 -0.743,2.472 -1.586,4.875 -2.278,7.375 -1.797,6.484 -3.418,13.054 -4.832,19.726 -37.7342,177.524 75.578,352.016 253.106,389.75 70.55,14.996 140.59,6.067 201.793,-21.199 14.668,33.312 27.609,62.68 38.718,87.859 C 517.68,873.219 427.328,884.586 336.355,865.242 136.371,822.738 -0.542969,645.887 0,449.246 0.078125,420.379 3.125,391.086 9.36328,361.719 38.4219,225.008 130.332,117.91 248.691,63.7578 l 38.782,87.8322 c -0.039,0.019 -0.078,0.039 -0.118,0.058"
         style="fill:#5788c2;fill-opacity:1;fill-rule:nonzero;stroke:none"
         id="path40" />
      <path
         d="M 731.27,331.98 C 692.617,231.824 605.793,152.539 492.949,128.555 c -8.476,-1.797 -16.949,-3.242 -25.39,-4.356 -4.219,-0.558 -8.411,-0.801 -12.614,-1.191 -4.152,-0.379 -8.324,-0.91 -12.461,-1.133 -5.691,-0.312 -11.336,-0.293 -16.992,-0.305 -2.554,-0.007 -5.125,-0.144 -7.676,-0.086 -6.664,0.137 -13.269,0.594 -19.863,1.133 -1.449,0.125 -2.914,0.156 -4.359,0.293 -7.321,0.703 -14.567,1.707 -21.77,2.891 -0.664,0.105 -1.332,0.176 -1.996,0.293 -7.699,1.308 -15.312,2.918 -22.855,4.765 -0.141,0.039 -0.285,0.059 -0.426,0.098 -15.492,3.809 -30.594,8.758 -45.262,14.727 -0.008,0 -0.008,0 -0.008,0 L 262.59,57.6289 C 339.141,25.9258 425.719,16.1914 512.891,34.7266 658.516,65.6836 770.691,167.871 820.82,297.488 l -89.55,34.492"
         style="fill:#b5c7e5;fill-opacity:1;fill-rule:nonzero;stroke:none"
         id="path42" />
    </g>
  </g>
</svg>
